<?xml version="1.0" encoding="utf-8"?>
<!-- Generator: Adobe Illustrator 19.0.0, SVG Export Plug-In . SVG Version: 6.00 Build 0)  -->
<svg version="1.1" id="Layer_1" xmlns="http://www.w3.org/2000/svg" xmlns:xlink="http://www.w3.org/1999/xlink" x="0px" y="0px"
	 viewBox="0 0 1000 1000" style="enable-background:new 0 0 1000 1000;" xml:space="preserve">
<style type="text/css">
	.st0{fill:#E51723;}
	.st1{fill:#F68B2E;}
	.st2{fill:#F9ED43;}
	.st3{fill:#018047;}
	.st4{fill:#005DA7;}
	.st5{fill:#682E80;}
</style>
<path id="XMLID_1_" class="st0" d="M853.0133057,283.3200684H146.913269c12.1200562-25.2600098,28.8099976-46.6601563,50-64.0100098
	c32.8300171-26.8901367,68.5-37.3200684,92.6400146-41.3300781c12.0800171-1.9899902,24.2900391-2.9899902,36.3300171-2.9899902
	c37.7199707,0,74.4000244,9.5300293,106.0599976,27.5600586c29.4400024,16.7800293,52.789978,39.9099121,68.0599976,67.329834
	c15.2700195-27.4099121,38.6099854-50.5498047,68.0700073-67.329834
	c31.6599731-18.0300293,68.3300171-27.5700684,106.0499878-27.5700684c12.1300049,0,24.3400269,1.0100098,36.3099976,3
	c24.1600342,4.0100098,59.8500366,14.4399414,92.6799927,41.3500977
	c6.3599854,5.1899414,12.4899902,10.9599609,18.1500244,17.0898438l1.3399658,1.4399414l0.8299561,1.1801758l1.1000977,0.9699707
	l1.3898926,1.619873C836.6132813,254.0900879,845.6533203,268.0100098,853.0133057,283.3200684z"/>
<path id="XMLID_3_" class="st1" d="M876.2733154,391.6599121H123.7232666
	c-0.1299438-9.6298828,0.3400269-19.1899414,1.4000244-28.6899414c2.3300171-20.8999023,6.6199951-40.2399902,12.8499756-57.9799805
	c2.6300049-7.5100098,5.6100464-14.7399902,8.9400024-21.6699219h706.1000366
	c3.3300781,6.9399414,6.3200684,14.1699219,8.9599609,21.6699219c6.2900391,17.7900391,10.6000977,37.1501465,12.9200439,57.9899902
	C875.9532471,372.4799805,876.413208,382.0400391,876.2733154,391.6599121z"/>
<path id="XMLID_5_" class="st2" d="M876.2733154,391.6599121C876.083374,405.9799805,874.5633545,420.4399414,871.7232666,435
	c-4.1599121,21.4799805-11.1899414,43.1799316-21.0500488,65H149.2932739
	c-9.8499756-21.8200684-16.8699951-43.5200195-21.0299683-65c-2.8300171-14.5500488-4.3500366-29.0100098-4.5400391-43.3400879
	H876.2733154z"/>
<path id="XMLID_7_" class="st3" d="M850.6732178,500c-4.3898926,9.6999512-9.329834,19.4099121-14.8199463,29.1499023
	C829.1333008,541.0500488,821.5533447,553.0100098,813.1433105,565
	c-10.1099854,14.4099121-21.4000244,28.8701172-33.8800049,43.3400879H220.6132813
	c-12.4599609-14.4699707-23.75-28.9301758-33.8399658-43.3400879
	c-8.3800049-11.9599609-15.9299927-23.8901367-22.6300049-35.7600098
	C158.6333008,519.4699707,153.6732788,509.7199707,149.2932739,500H850.6732178z"/>
<path id="XMLID_9_" class="st4" d="M779.2633057,608.3400879c-16.0700684,18.6298828-34.0700073,37.2800293-53.9500122,55.8498535
	c-10.9500122,10.2299805-22.960022,20.5700684-35.5499878,30.8200684
	c-8.9700317,7.3000488-18.2299805,14.5500488-27.6199951,21.6699219H337.7133179
	c-9.4000244-7.119873-18.6600342-14.369873-27.6300049-21.6699219
	c-12.5499878-10.2199707-24.5100098-20.5200195-35.4200439-30.7199707
	c-19.9199829-18.6000977-37.9499512-37.2800293-54.0499878-55.9499512H779.2633057z"/>
<path id="XMLID_10_" class="st5" d="M662.1433105,716.6799316
	c-76.8599854,58.3300781-162.1500244,108.3400879-162.1500244,108.3400879s-85.3800049-49.9899902-162.2799683-108.3400879
	H662.1433105z"/>
</svg>
